<svg width="24" height="24" viewBox="0 0 24 24" fill="none" xmlns="http://www.w3.org/2000/svg">
<path d="M8.53846 9.75C8.53846 9.84946 8.49794 9.94484 8.42581 10.0152C8.35368 10.0855 8.25585 10.125 8.15385 10.125C8.05184 10.125 7.95401 10.0855 7.88188 10.0152C7.80975 9.94484 7.76923 9.84946 7.76923 9.75C7.76923 9.65055 7.80975 9.55516 7.88188 9.48484C7.95401 9.41451 8.05184 9.375 8.15385 9.375C8.25585 9.375 8.35368 9.41451 8.42581 9.48484C8.49794 9.55516 8.53846 9.65055 8.53846 9.75ZM8.53846 9.75H8.15385M12.3846 9.75C12.3846 9.84946 12.3441 9.94484 12.272 10.0152C12.1998 10.0855 12.102 10.125 12 10.125C11.898 10.125 11.8002 10.0855 11.728 10.0152C11.6559 9.94484 11.6154 9.84946 11.6154 9.75C11.6154 9.65055 11.6559 9.55516 11.728 9.48484C11.8002 9.41451 11.898 9.375 12 9.375C12.102 9.375 12.1998 9.41451 12.272 9.48484C12.3441 9.55516 12.3846 9.65055 12.3846 9.75ZM12.3846 9.75H12M16.2308 9.75C16.2308 9.84946 16.1902 9.94484 16.1181 10.0152C16.046 10.0855 15.9482 10.125 15.8462 10.125C15.7441 10.125 15.6463 10.0855 15.5742 10.0152C15.5021 9.94484 15.4615 9.84946 15.4615 9.75C15.4615 9.65055 15.5021 9.55516 15.5742 9.48484C15.6463 9.41451 15.7441 9.375 15.8462 9.375C15.9482 9.375 16.046 9.41451 16.1181 9.48484C16.1902 9.55516 16.2308 9.65055 16.2308 9.75ZM16.2308 9.75H15.8462M2 12.76C2 14.36 3.15179 15.754 4.77641 15.987C5.89128 16.147 7.01744 16.27 8.15385 16.356V21L12.4451 16.817C12.6576 16.6107 12.9433 16.4918 13.2431 16.485C15.2447 16.437 17.2416 16.2707 19.2226 15.987C20.8482 15.754 22 14.361 22 12.759V6.741C22 5.139 20.8482 3.746 19.2236 3.513C16.8318 3.17072 14.4175 2.99926 12 3C9.54667 3 7.13436 3.175 4.77641 3.513C3.15179 3.746 2 5.14 2 6.741V12.759V12.76Z" stroke="#1F2937" stroke-width="1.5" stroke-linecap="round" stroke-linejoin="round"/>
</svg>
