<svg width="24" height="24" viewBox="0 0 24 24" fill="none" xmlns="http://www.w3.org/2000/svg">
<path d="M8.16426 17.6C8.16426 17.9713 8.0019 18.3274 7.71289 18.59C7.42389 18.8525 7.03191 19 6.6232 19C6.21448 19 5.82251 18.8525 5.5335 18.59C5.2445 18.3274 5.08214 17.9713 5.08214 17.6M8.16426 17.6C8.16426 17.2288 8.0019 16.8727 7.71289 16.6101C7.42389 16.3476 7.03191 16.2001 6.6232 16.2001C6.21448 16.2001 5.82251 16.3476 5.5335 16.6101C5.2445 16.8727 5.08214 17.2288 5.08214 17.6M8.16426 17.6H14.3285M5.08214 17.6H3.15581C2.84928 17.6 2.5553 17.4894 2.33854 17.2925C2.12179 17.0956 2.00002 16.8285 2.00002 16.5501V13.4002M14.3285 17.6H16.6401M14.3285 17.6V13.4002M2.00002 13.4002V6.27441C1.99839 6.01884 2.10118 5.77181 2.28849 5.58113C2.47581 5.39044 2.73434 5.26967 3.01404 5.24217C6.43832 4.91928 9.8902 4.91928 13.3145 5.24217C13.8949 5.2963 14.3285 5.74429 14.3285 6.27441V7.16851M2.00002 13.4002H14.3285M19.7222 17.6C19.7222 17.9713 19.5598 18.3274 19.2708 18.59C18.9818 18.8525 18.5899 19 18.1811 19C17.7724 19 17.3805 18.8525 17.0915 18.59C16.8024 18.3274 16.6401 17.9713 16.6401 17.6M19.7222 17.6C19.7222 17.2288 19.5598 16.8727 19.2708 16.6101C18.9818 16.3476 18.5899 16.2001 18.1811 16.2001C17.7724 16.2001 17.3805 16.3476 17.0915 16.6101C16.8024 16.8727 16.6401 17.2288 16.6401 17.6M19.7222 17.6H20.878C21.516 17.6 22.0379 17.1297 21.9978 16.551C21.7914 13.4689 20.6488 10.4991 18.6969 7.97115C18.511 7.73435 18.2682 7.53905 17.987 7.4C17.7058 7.26095 17.3935 7.18179 17.0736 7.16851H14.3285M14.3285 7.16851V13.4002" stroke="#1F2937" stroke-width="1.5" stroke-linecap="round" stroke-linejoin="round"/>
</svg>
