<svg width="375" height="812" viewBox="0 0 375 812" fill="none" xmlns="http://www.w3.org/2000/svg">
<g opacity="0.3" filter="url(#filter0_f_8003_11205)">
<path fill-rule="evenodd" clip-rule="evenodd" d="M103.852 -1.31111C146.245 17.7515 213.83 26.7306 203.407 81.8688C192.989 136.976 111.66 164.696 63.9586 209.713C19.4968 251.672 -10.0537 312.136 -62.4958 332.806C-124.042 357.064 -201.355 368.023 -224.364 323.352C-247.182 279.051 -175.533 208.476 -157.775 147.826C-143.646 99.5723 -173.57 50.0948 -132.838 10.7623C-92.0661 -28.6098 -42.5361 -5.63412 3.57816 -7.98637C39.8689 -9.83753 75.0443 -14.2647 103.852 -1.31111Z" fill="#2563EB"/>
<path fill-rule="evenodd" clip-rule="evenodd" d="M-52.7935 548.529C-38.4557 517.3 -31.4264 467.389 9.27465 475.414C49.9527 483.435 69.974 543.719 102.977 579.243C133.738 612.355 178.266 634.551 193.242 673.439C210.818 719.078 218.472 776.295 185.315 793.046C152.434 809.658 100.675 756.282 55.9418 742.803C20.3519 732.079 -16.3981 753.913 -45.2391 723.574C-74.1091 693.205 -56.8372 656.723 -58.309 622.619C-59.4673 595.78 -62.5364 569.75 -52.7935 548.529Z" fill="#2563EB"/>
<path fill-rule="evenodd" clip-rule="evenodd" d="M305.366 384.569C244.969 356.836 290.487 258.468 264.99 197.101C246.197 151.871 163.171 129.685 180.416 83.8455C198.182 36.6197 272.156 58.4092 321.367 47.2394C348.055 41.182 372.663 27.7006 399.254 34.1747C426.449 40.796 448.024 59.2828 464.312 82.0426C482.764 107.826 495.904 136.486 495.154 168.179C494.142 210.961 487.693 254.233 459.475 286.406C417.728 334.006 362.91 410.993 305.366 384.569Z" fill="#10B981"/>
<path fill-rule="evenodd" clip-rule="evenodd" d="M261.79 603.812C314.02 603.929 391.356 583.775 409.729 632.667C429.052 684.088 344.581 714.697 322.332 764.92C306.881 799.797 336.894 855.584 303.119 873.313C269.055 891.193 239.31 836.114 201.647 828.269C158.73 819.329 108.673 854.093 75.1624 825.829C37.1705 793.786 14.6837 733.219 35.3759 688.03C55.592 643.882 118.354 649.046 163.865 632.118C196.971 619.804 226.467 603.733 261.79 603.812Z" fill="#F59E0B"/>
</g>
<defs>
<filter id="filter0_f_8003_11205" x="-328.805" y="-112.538" width="923.989" height="1089.4" filterUnits="userSpaceOnUse" color-interpolation-filters="sRGB">
<feFlood flood-opacity="0" result="BackgroundImageFix"/>
<feBlend mode="normal" in="SourceGraphic" in2="BackgroundImageFix" result="shape"/>
<feGaussianBlur stdDeviation="50" result="effect1_foregroundBlur_8003_11205"/>
</filter>
</defs>
</svg>
